<svg width="56" height="44" viewBox="0 0 56 44" fill="none" xmlns="http://www.w3.org/2000/svg">
<path fill-rule="evenodd" clip-rule="evenodd" d="M27.8904 15.2696C26.5079 12.8746 30.8309 7.79309 37.5456 3.91539C44.2571 0.0408068 50.8215 -1.16299 52.2038 1.23199C52.9688 2.55801 53.7336 3.88402 54.5016 5.21317C55.8841 7.60502 51.5612 12.6865 44.8465 16.5642C38.1318 20.4388 31.5706 21.6426 30.1882 19.2507C29.4234 17.9216 28.6553 16.5956 27.8904 15.2696Z" fill="#FE9923"/>
<path fill-rule="evenodd" clip-rule="evenodd" d="M37.5455 3.91539C44.2571 0.0408068 50.8214 -1.16299 52.2038 1.23199C53.5863 3.62384 49.2634 8.70534 42.5487 12.583C35.834 16.4608 29.2729 17.6614 27.8904 15.2696C26.5079 12.8746 30.8309 7.79309 37.5455 3.91539Z" fill="#FECD3D"/>
<path fill-rule="evenodd" clip-rule="evenodd" d="M38.715 5.94044C44.0567 2.8589 48.9815 1.39191 49.7181 2.66458C50.4548 3.94047 46.7213 7.47339 41.3795 10.5579C36.0379 13.6426 31.1099 15.1097 30.3764 13.8338C29.6398 12.558 33.3733 9.0251 38.715 5.94044Z" fill="#FEA832"/>
<path d="M51.7023 7.95306L52.9248 10.0721C53.2164 9.71472 53.4797 9.36368 53.7054 9.01878L52.7399 7.3511L51.7023 7.95306ZM50.6552 12.417C50.3605 12.6803 50.0501 12.9467 49.7305 13.2101L48.5643 11.1882L49.6019 10.5926L50.6552 12.417ZM47.1944 15.0941C46.8684 15.3167 46.5329 15.5361 46.1913 15.7524L45.0785 13.8246L46.1161 13.229L47.1944 15.0941ZM43.4734 17.3198C43.1129 17.511 42.7556 17.6897 42.4013 17.8653L41.3197 15.9969L42.3605 15.395L43.4734 17.3198ZM39.5016 19.116C39.1098 19.2634 38.7273 19.3982 38.3512 19.5204L37.2947 17.696L38.3354 17.0973L39.5016 19.116ZM35.185 20.3135C34.7305 20.3887 34.2946 20.4389 33.884 20.4639L32.9216 18.7963L33.9624 18.1944L35.185 20.3135Z" fill="#C85929"/>
<path fill-rule="evenodd" clip-rule="evenodd" d="M26.8687 25.6614C28.2511 23.2696 23.9282 18.1849 17.2135 14.3104C10.502 10.4327 3.93762 9.23199 2.55523 11.6238C1.79032 12.9499 1.02551 14.279 0.257473 15.605C-1.12502 17.9969 3.19793 23.0815 9.91262 26.9561C16.6273 30.8338 23.1885 32.0344 24.5709 29.6426C25.3388 28.3167 26.1036 26.9874 26.8687 25.6614Z" fill="#FE9923"/>
<path fill-rule="evenodd" clip-rule="evenodd" d="M17.2133 14.3104C10.5017 10.4327 3.93738 9.23199 2.555 11.6238C1.17574 14.0188 5.49857 19.1003 12.2101 22.9749C18.9248 26.8526 25.4892 28.0533 26.8684 25.6614C28.2509 23.2696 23.928 18.1849 17.2133 14.3104Z" fill="#FECD3D"/>
<path fill-rule="evenodd" clip-rule="evenodd" d="M16.0441 16.3354C10.7056 13.2507 5.77764 11.7837 5.04096 13.0595C4.30429 14.3323 8.03778 17.8683 13.3795 20.9498C18.7211 24.0344 23.6491 25.5014 24.3857 24.2256C25.1193 22.953 21.3858 19.4201 16.0441 16.3354Z" fill="#FEA832"/>
<path d="M3.05673 18.3448L1.83418 20.4639C1.54263 20.1065 1.28245 19.7554 1.05676 19.4137L2.01913 17.7429L3.05673 18.3448ZM4.1037 22.8087C4.39837 23.072 4.70867 23.3386 5.02845 23.6019L6.19453 21.5831L5.15693 20.9843L4.1037 22.8087ZM7.56452 25.489C7.89055 25.7084 8.22596 25.9279 8.57075 26.1442L9.68358 24.2163L8.64286 23.6207L7.56452 25.489ZM11.2855 27.7147C11.646 27.9027 12.0034 28.0846 12.3608 28.257L13.4392 26.3886L12.3984 25.7868L11.2855 27.7147ZM15.2604 29.5078C15.6492 29.6551 16.0316 29.79 16.4109 29.9122L17.4642 28.0878L16.4235 27.4922L15.2604 29.5078ZM19.5739 30.7084C20.0316 30.7805 20.4642 30.8306 20.8748 30.8557L21.8372 29.188L20.7996 28.5862L19.5739 30.7084Z" fill="#C85929"/>
<path fill-rule="evenodd" clip-rule="evenodd" d="M25.8999 38.7868C24.5205 36.3949 28.8403 31.3134 35.555 27.4357C42.2697 23.5611 48.8309 22.3573 50.2133 24.7492C50.9814 26.0783 51.7463 27.4044 52.5111 28.7304C53.8936 31.1254 49.5706 36.2069 42.8591 40.0846C36.1444 43.9591 29.58 45.1629 28.1976 42.768C27.4328 41.4419 26.6679 40.1159 25.8999 38.7868Z" fill="#FE9923"/>
<path fill-rule="evenodd" clip-rule="evenodd" d="M35.555 27.4355C42.2697 23.561 48.8309 22.3572 50.2133 24.749C51.5958 27.144 47.2729 32.2255 40.5582 36.1032C33.8466 39.9778 27.2824 41.1816 25.8999 38.7866C24.5205 36.3949 28.8403 31.3134 35.555 27.4355Z" fill="#FECD3D"/>
<path fill-rule="evenodd" clip-rule="evenodd" d="M36.7245 29.4608C42.0662 26.3761 46.9941 24.9122 47.7277 26.1849C48.4643 27.4607 44.7308 30.9937 39.3891 34.0783C34.0474 37.1598 29.1226 38.6268 28.3859 37.3542C27.6493 36.0783 31.3828 32.5454 36.7245 29.4608Z" fill="#FEA832"/>
<path d="M49.7119 31.4733L50.9375 33.5924C51.2291 33.235 51.4893 32.8809 51.7149 32.5391L50.7526 30.8714L49.7119 31.4733ZM48.6679 35.9341C48.3701 36.2005 48.0629 36.4638 47.74 36.7272L46.5738 34.7084L47.6146 34.1128L48.6679 35.9341ZM45.2071 38.6143C44.8779 38.8369 44.5425 39.0563 44.2008 39.2727L43.088 37.3448L44.1287 36.7461L45.2071 38.6143ZM41.483 40.84C41.1256 41.0281 40.7651 41.2099 40.4109 41.3823L39.3324 39.514L40.37 38.9121L41.483 40.84ZM37.5112 42.6363C37.1225 42.7805 36.7369 42.9152 36.3607 43.0406L35.3074 41.213L36.345 40.6174L37.5112 42.6363ZM33.1977 43.8338C32.74 43.909 32.3042 43.956 31.8967 43.9811L30.9343 42.3135L31.9719 41.7116L33.1977 43.8338Z" fill="#C85929"/>
<path d="M23.2072 5.61755V7.40131H24.9908V8.94989H23.2072V10.7367H21.6586V8.94989H19.8717V7.40131H21.6586V5.61755H23.2072Z" fill="#FEA832"/>
<path d="M17.6898 34.2288V36.0126H19.4766V37.5611H17.6898V39.3479H16.1412V37.5611H14.3575V36.0126H16.1412V34.2288H17.6898Z" fill="#FEA832"/>
<path d="M53.2886 16.7336V18.5172H55.0754V20.0659H53.2886V21.8527H51.7399V20.0659H49.9563V18.5172H51.7399V16.7336H53.2886Z" fill="#FEA832"/>
</svg>
