<svg width="20" height="20" viewBox="0 0 20 20" fill="none" xmlns="http://www.w3.org/2000/svg">
<path d="M5.46316 2.72895C5.46368 3.26943 5.30385 3.79791 5.0039 4.24752C4.70395 4.69713 4.27736 5.04765 3.77813 5.25473C3.27889 5.4618 2.72944 5.51612 2.19932 5.4108C1.6692 5.30549 1.18224 5.04527 0.800062 4.6631C0.417886 4.28092 0.157674 3.79396 0.0523596 3.26384C-0.0529551 2.73372 0.00136103 2.18427 0.208434 1.68503C0.415507 1.1858 0.766029 0.759208 1.21564 0.459259C1.66525 0.159309 2.19373 -0.000519176 2.73421 1.26698e-06C3.45776 0.000697992 4.15147 0.288435 4.6631 0.800061C5.17473 1.31169 5.46246 2.0054 5.46316 2.72895Z" fill="white"/>
<path d="M4.17103 6.59741H1.29735C0.92383 6.59741 0.621033 6.90021 0.621033 7.27373V19.3237C0.621033 19.6972 0.92383 20 1.29735 20H4.17103C4.54455 20 4.84735 19.6972 4.84735 19.3237V7.27373C4.84735 6.90021 4.54455 6.59741 4.17103 6.59741Z" fill="white"/>
<path d="M19.8711 13.5448V19.379C19.8711 19.5437 19.8056 19.7017 19.6892 19.8181C19.5727 19.9346 19.4147 20 19.25 20H16.1658C16.0011 20 15.8431 19.9346 15.7266 19.8181C15.6102 19.7017 15.5447 19.5437 15.5447 19.379V13.7263C15.5447 12.8816 15.7895 10.0421 13.3395 10.0421C11.4395 10.0421 11.0526 11.9948 10.9711 12.8711V19.3921C10.9676 19.5536 10.9014 19.7075 10.7865 19.821C10.6715 19.9345 10.5168 19.9987 10.3553 20H7.37106C7.2894 20.0004 7.20849 19.9845 7.13298 19.9535C7.05747 19.9224 6.98887 19.8766 6.93113 19.8189C6.87339 19.7612 6.82766 19.6926 6.79657 19.6171C6.76548 19.5415 6.74966 19.4606 6.75001 19.379V7.22108C6.74966 7.1393 6.76547 7.05826 6.79652 6.9826C6.82758 6.90695 6.87327 6.83817 6.93097 6.78023C6.98868 6.72228 7.05726 6.67629 7.13278 6.64492C7.2083 6.61354 7.28928 6.59739 7.37106 6.59739H10.3553C10.4381 6.596 10.5203 6.6111 10.5972 6.64181C10.6741 6.67253 10.7441 6.71825 10.8031 6.7763C10.8621 6.83436 10.909 6.90358 10.941 6.97995C10.973 7.05631 10.9895 7.13828 10.9895 7.22108V8.27371C11.6947 7.22108 12.7421 6.40003 14.9711 6.40003C19.9 6.39739 19.8711 11.0106 19.8711 13.5448Z" fill="white"/>
</svg>
