<svg width="24" height="24" viewBox="0 0 24 24" fill="none" xmlns="http://www.w3.org/2000/svg">
<path d="M24.0045 12.0022C24.0045 18.6302 18.6302 23.9998 12.0022 23.9998C5.37428 23.9998 0 18.6302 0 12.0022C0 5.37428 5.37428 0 12.0022 0C18.6302 0 24.0045 5.37428 24.0045 12.0022Z" fill="#F9B938"/>
<path d="M24.003 12.0006C24.003 18.6281 18.6312 24 12.0037 24C8.42246 24 5.20792 22.4337 3.01172 19.9441C5.12591 21.8081 7.90033 22.9342 10.938 22.9342C17.5654 22.9342 22.9373 17.5623 22.9373 10.9349C22.9373 7.89726 21.8069 5.12289 19.9342 3.00427C22.4282 5.19189 24.003 8.41069 24.003 12.0006Z" fill="#E5A320"/>
<g opacity="0.3">
<path d="M2.5651 7.8488C2.40541 7.7679 2.34178 7.57323 2.42268 7.41396C3.51149 5.26542 5.30313 3.50159 7.46768 2.44775C7.62864 2.36854 7.82247 2.4368 7.9 2.59692C7.97837 2.75746 7.9118 2.95129 7.75084 3.02924C5.7127 4.02197 4.02555 5.68299 2.99995 7.70638C2.91975 7.865 2.72566 7.9298 2.5651 7.8488Z" fill="white"/>
</g>
<g opacity="0.3">
<path d="M9.50954 2.02234C9.46825 1.84831 9.57612 1.67387 9.74972 1.633C10.3118 1.50027 10.8908 1.41094 11.4706 1.36754C11.6484 1.36122 11.8043 1.48805 11.8174 1.66628C11.8304 1.84452 11.6968 1.99958 11.5186 2.01307C10.9725 2.05394 10.4277 2.13779 9.89888 2.26251C9.72101 2.30402 9.54974 2.19332 9.50954 2.02234Z" fill="white"/>
</g>
<path d="M20.8682 12.0033C20.8682 13.4617 20.5156 14.8359 19.8866 16.0499C18.4162 18.9065 15.4353 20.8657 12.0018 20.8657C8.57223 20.8657 5.5874 18.9065 4.11695 16.0499C3.488 14.8359 3.13538 13.4617 3.13538 12.0033C3.13538 7.11141 7.11385 3.13293 12.0018 3.13293C16.8937 3.13294 20.8682 7.11141 20.8682 12.0033Z" fill="#F7F363"/>
<path d="M18.7447 6.25396C17.1982 4.92784 15.195 4.13055 12.9994 4.13055C8.11147 4.13055 4.13299 8.10902 4.13299 13.0009C4.13299 14.4593 4.48561 15.8335 5.11461 17.0475C5.42307 17.6525 5.79971 18.2134 6.2364 18.7262C5.36702 17.981 4.64583 17.0715 4.11695 16.0499C3.488 14.8359 3.13538 13.4617 3.13538 12.0033C3.13538 7.11141 7.11385 3.13293 12.0018 3.13293C14.7022 3.13293 17.1221 4.34687 18.7447 6.25396Z" fill="#EDD318"/>
<path d="M13.0156 7.66281L13.9986 9.65454L16.1966 9.97393C17.1239 10.1087 17.4942 11.2483 16.8232 11.9023L15.2327 13.4527L15.6082 15.6418C15.7666 16.5654 14.7972 17.2697 13.9678 16.8336L12.0018 15.8001L10.0359 16.8336C9.20644 17.2697 8.23705 16.5654 8.39545 15.6418L8.77092 13.4527L7.18042 11.9023C6.50941 11.2483 6.87968 10.1087 7.807 9.97393L10.005 9.65454L10.988 7.66281C11.4027 6.82252 12.6009 6.82252 13.0156 7.66281Z" fill="#F9B938"/>
<g opacity="0.4">
<path d="M12.2503 8.93698C12.262 9.09442 12.1396 9.23436 11.9821 9.24603C11.9355 9.25187 11.8772 9.26354 11.8247 9.31016C11.7955 9.33351 11.778 9.36262 11.7605 9.39181L11.1716 10.5872C11.0492 10.8379 10.8101 11.0128 10.5302 11.0536L9.21245 11.246C9.1075 11.2577 9.02586 11.3277 8.99671 11.4268C8.96173 11.5259 8.99088 11.6251 9.06084 11.7008C9.22848 11.8643 10.0586 12.674 10.0054 12.6221C10.1221 12.7329 10.1221 12.9195 10.0113 13.0361C9.90154 13.1458 9.72507 13.1569 9.59731 13.0419L8.69933 12.1556C8.68769 12.1498 8.67018 12.1381 8.65851 12.1206C8.41946 11.8933 8.33782 11.555 8.44277 11.246C8.54192 10.937 8.80428 10.7096 9.13081 10.6629L10.4428 10.4763C10.5302 10.4647 10.606 10.4064 10.6469 10.3247L11.2358 9.13528C11.2766 9.04773 11.3349 8.97784 11.399 8.91363C11.4107 8.89619 11.4224 8.88452 11.4398 8.86701C11.5798 8.75042 11.7489 8.68046 11.9413 8.66878C12.0929 8.65127 12.2387 8.7737 12.2503 8.93698Z" fill="white"/>
</g>
<path d="M16.8217 11.9049L15.2299 13.45C15.2687 13.6742 15.0895 12.6379 15.6089 15.6424C15.7656 16.5647 14.7974 17.2668 13.9694 16.8314C12.8977 16.2678 11.9455 15.7713 11.9996 15.7998L10.0346 16.8319C9.2066 17.2692 8.23869 16.5637 8.39613 15.6424L8.44859 15.3217C8.67017 15.9223 9.39319 16.2605 10.0346 15.9281L11.6898 15.0539C11.8797 14.9535 12.11 14.969 12.2848 15.0937L13.2353 15.772C13.7498 16.1392 14.5119 15.8187 14.5358 15.1872C14.5372 15.1489 14.5355 15.1138 14.5302 15.0827L14.2071 13.1895C14.1757 13.0057 14.2366 12.8183 14.3698 12.688L15.743 11.3451C16.157 10.9427 16.1745 10.3538 15.9121 9.93396L16.1978 9.97482C17.1249 10.1089 17.4923 11.2459 16.8217 11.9049Z" fill="#E5A320"/>
</svg>
